<mxfile host="Electron" agent="Mozilla/5.0 (Windows NT 10.0; Win64; x64) AppleWebKit/537.36 (KHTML, like Gecko) draw.io/28.1.2 Chrome/138.0.7204.243 Electron/37.4.0 Safari/537.36" version="28.1.2">
  <diagram name="Page-1" id="c7558073-3199-34d8-9f00-42111426c3f3">
    <mxGraphModel dx="600" dy="1961" grid="1" gridSize="10" guides="1" tooltips="1" connect="1" arrows="1" fold="1" page="1" pageScale="1" pageWidth="826" pageHeight="1169" background="none" math="0" shadow="0">
      <root>
        <mxCell id="0" />
        <mxCell id="1" parent="0" />
        <mxCell id="PpcFPU1yM33MXQpwuD_V-96" value="" style="whiteSpace=wrap;html=1;fontSize=24;fontFamily=Comic Sans MS;fillColor=#FFFF99;spacingLeft=20;shadow=0;gradientColor=none;sketch=1;rounded=1;movable=1;resizable=1;rotatable=1;deletable=1;editable=1;locked=0;connectable=1;rotation=0;" parent="1" vertex="1">
          <mxGeometry x="3070" y="-840" width="1590" height="2080" as="geometry" />
        </mxCell>
        <mxCell id="PpcFPU1yM33MXQpwuD_V-170" value="&lt;div&gt;&lt;br&gt;&lt;/div&gt;&lt;div&gt;&lt;br&gt;&lt;/div&gt;&lt;div&gt;&lt;br&gt;&lt;/div&gt;&lt;div&gt;&lt;br&gt;&lt;/div&gt;&lt;div&gt;&lt;br&gt;&lt;/div&gt;load_A" style="whiteSpace=wrap;html=1;fontSize=24;fontFamily=Comic Sans MS;fillColor=none;spacingLeft=20;shadow=0;gradientColor=none;rounded=1;glass=0;strokeWidth=1;dashed=1;movable=1;resizable=1;rotatable=1;deletable=1;editable=1;locked=0;connectable=1;align=left;container=0;rotation=0;" parent="1" vertex="1">
          <mxGeometry x="1090" y="-80" width="600" height="290" as="geometry" />
        </mxCell>
        <mxCell id="PpcFPU1yM33MXQpwuD_V-97" value="ASM diagram" style="text;strokeColor=none;fillColor=none;align=left;verticalAlign=top;spacingLeft=4;spacingRight=4;overflow=hidden;rotatable=1;points=[[0,0.5],[1,0.5]];portConstraint=eastwest;shadow=0;fontFamily=Comic Sans MS;fontSize=42;movable=1;resizable=1;deletable=1;editable=1;locked=0;connectable=1;rotation=0;" parent="1" vertex="1">
          <mxGeometry x="2053" y="432" width="360" height="80" as="geometry" />
        </mxCell>
        <mxCell id="PpcFPU1yM33MXQpwuD_V-139" value="" style="edgeStyle=orthogonalEdgeStyle;rounded=1;orthogonalLoop=1;jettySize=auto;html=1;movable=1;resizable=1;rotatable=1;deletable=1;editable=1;locked=0;connectable=1;" parent="1" source="PpcFPU1yM33MXQpwuD_V-135" target="PpcFPU1yM33MXQpwuD_V-138" edge="1">
          <mxGeometry relative="1" as="geometry" />
        </mxCell>
        <mxCell id="jwtGaJk6qlg6mfye-Sgs-7" value="" style="edgeStyle=orthogonalEdgeStyle;rounded=0;orthogonalLoop=1;jettySize=auto;html=1;entryX=0.5;entryY=0;entryDx=0;entryDy=0;" edge="1" parent="1" source="PpcFPU1yM33MXQpwuD_V-135" target="PpcFPU1yM33MXQpwuD_V-144">
          <mxGeometry relative="1" as="geometry" />
        </mxCell>
        <mxCell id="PpcFPU1yM33MXQpwuD_V-135" value="A_count=0/1&lt;div&gt;valid_input=1&lt;/div&gt;" style="shape=hexagon;perimeter=hexagonPerimeter2;whiteSpace=wrap;html=1;fixedSize=1;fontSize=16;fontFamily=Comic Sans MS;fillColor=#FFFF99;rounded=0;arcSize=10;shadow=0;gradientColor=none;movable=1;resizable=1;rotatable=1;deletable=1;editable=1;locked=0;connectable=1;rotation=0;" parent="1" vertex="1">
          <mxGeometry x="1328" y="-38" width="140" height="45" as="geometry" />
        </mxCell>
        <mxCell id="jwtGaJk6qlg6mfye-Sgs-8" value="" style="edgeStyle=orthogonalEdgeStyle;rounded=0;orthogonalLoop=1;jettySize=auto;html=1;entryX=0.5;entryY=0;entryDx=0;entryDy=0;" edge="1" parent="1" source="PpcFPU1yM33MXQpwuD_V-138" target="PpcFPU1yM33MXQpwuD_V-147">
          <mxGeometry relative="1" as="geometry" />
        </mxCell>
        <mxCell id="PpcFPU1yM33MXQpwuD_V-138" value="A_count=2&lt;div&gt;valid_input=1&lt;/div&gt;" style="shape=hexagon;perimeter=hexagonPerimeter2;whiteSpace=wrap;html=1;fixedSize=1;fontSize=16;fontFamily=Comic Sans MS;fillColor=#FFFF99;rounded=0;arcSize=10;shadow=0;gradientColor=none;movable=1;resizable=1;rotatable=1;deletable=1;editable=1;locked=0;connectable=1;rotation=0;" parent="1" vertex="1">
          <mxGeometry x="1516" y="-38" width="130" height="45" as="geometry" />
        </mxCell>
        <mxCell id="jwtGaJk6qlg6mfye-Sgs-10" style="edgeStyle=orthogonalEdgeStyle;rounded=0;orthogonalLoop=1;jettySize=auto;html=1;exitX=0.75;exitY=1;exitDx=0;exitDy=0;entryX=0.375;entryY=0;entryDx=0;entryDy=0;" edge="1" parent="1" source="PpcFPU1yM33MXQpwuD_V-144" target="jwtGaJk6qlg6mfye-Sgs-9">
          <mxGeometry relative="1" as="geometry" />
        </mxCell>
        <mxCell id="PpcFPU1yM33MXQpwuD_V-144" value="ram_A&amp;lt;=ram_A&amp;lt;&amp;lt;32&amp;amp;wdata&lt;div&gt;A_count++&lt;/div&gt;&lt;div&gt;load_A_done=0&lt;/div&gt;" style="whiteSpace=wrap;html=1;fontSize=12;fontFamily=Comic Sans MS;fillColor=#FFFF99;rounded=1;arcSize=10;shadow=0;gradientColor=none;movable=1;resizable=1;rotatable=1;deletable=1;editable=1;locked=0;connectable=1;rotation=0;" parent="1" vertex="1">
          <mxGeometry x="1318" y="55" width="160" height="45" as="geometry" />
        </mxCell>
        <mxCell id="PpcFPU1yM33MXQpwuD_V-110" value="IDLE&lt;div&gt;&lt;br&gt;&lt;/div&gt;&lt;div&gt;&lt;br&gt;&lt;/div&gt;&lt;div&gt;&lt;br&gt;&lt;/div&gt;&lt;div&gt;&lt;br&gt;&lt;/div&gt;&lt;div&gt;&lt;br&gt;&lt;/div&gt;" style="whiteSpace=wrap;html=1;fontSize=24;fontFamily=Comic Sans MS;fillColor=none;spacingLeft=20;shadow=0;gradientColor=none;rounded=1;glass=0;strokeWidth=1;dashed=1;movable=1;resizable=1;rotatable=1;deletable=1;editable=1;locked=0;connectable=1;align=left;rotation=0;" parent="1" vertex="1">
          <mxGeometry x="1090" y="-275" width="600" height="190" as="geometry" />
        </mxCell>
        <mxCell id="PpcFPU1yM33MXQpwuD_V-178" style="edgeStyle=orthogonalEdgeStyle;rounded=1;orthogonalLoop=1;jettySize=auto;html=1;movable=1;resizable=1;rotatable=1;deletable=1;editable=1;locked=0;connectable=1;entryX=0;entryY=0.5;entryDx=0;entryDy=0;" parent="1" source="PpcFPU1yM33MXQpwuD_V-107" edge="1" target="PpcFPU1yM33MXQpwuD_V-118">
          <mxGeometry relative="1" as="geometry">
            <mxPoint x="1310" y="-160" as="targetPoint" />
          </mxGeometry>
        </mxCell>
        <mxCell id="PpcFPU1yM33MXQpwuD_V-107" value="&lt;div&gt;&lt;font face=&quot;Comic Sans MS&quot;&gt;&lt;span style=&quot;text-wrap: nowrap;&quot;&gt;start_in=1&lt;/span&gt;&lt;/font&gt;&lt;/div&gt;" style="shape=hexagon;perimeter=hexagonPerimeter2;whiteSpace=wrap;html=1;fixedSize=1;rounded=0;fillColor=light-dark(#ffffa6, #ededed);fontSize=16;movable=1;resizable=1;rotatable=1;deletable=1;editable=1;locked=0;connectable=1;rotation=0;" parent="1" vertex="1">
          <mxGeometry x="1120" y="-216" width="150" height="60" as="geometry" />
        </mxCell>
        <mxCell id="PpcFPU1yM33MXQpwuD_V-122" style="edgeStyle=orthogonalEdgeStyle;rounded=1;orthogonalLoop=1;jettySize=auto;html=1;movable=1;resizable=1;rotatable=1;deletable=1;editable=1;locked=0;connectable=1;entryX=0.625;entryY=1;entryDx=0;entryDy=0;exitX=0.5;exitY=1;exitDx=0;exitDy=0;" parent="1" source="PpcFPU1yM33MXQpwuD_V-118" target="PpcFPU1yM33MXQpwuD_V-107" edge="1">
          <mxGeometry relative="1" as="geometry">
            <Array as="points">
              <mxPoint x="1516" y="-100" />
              <mxPoint x="1214" y="-100" />
            </Array>
          </mxGeometry>
        </mxCell>
        <mxCell id="PpcFPU1yM33MXQpwuD_V-118" value="ALU_en&amp;nbsp; &amp;nbsp; &amp;lt;=0&lt;div&gt;l&lt;span style=&quot;background-color: transparent; color: light-dark(rgb(0, 0, 0), rgb(255, 255, 255));&quot;&gt;oad_en&amp;nbsp; &amp;nbsp; &amp;nbsp;&amp;lt;= 0&lt;/span&gt;&lt;/div&gt;finish&amp;nbsp; &amp;nbsp; &amp;nbsp; &amp;nbsp; &amp;lt;= 0&lt;div&gt;row_count &amp;lt;= 0&lt;/div&gt;&lt;div&gt;&lt;span style=&quot;background-color: transparent; color: light-dark(rgb(0, 0, 0), rgb(255, 255, 255));&quot;&gt;row_finish &amp;lt;= 0&lt;/span&gt;&lt;/div&gt;&lt;div&gt;count_col&amp;nbsp; &amp;lt;= 0&lt;/div&gt;&lt;div&gt;shift_counter &amp;lt;= 0&lt;/div&gt;" style="html=1;rounded=1;absoluteArcSize=1;arcSize=10;shadow=0;fontFamily=Comic Sans MS;fontSize=16;fillColor=#FFFF99;gradientColor=none;movable=1;resizable=1;rotatable=1;deletable=1;editable=1;locked=0;connectable=1;rotation=0;" parent="1" vertex="1">
          <mxGeometry x="1371" y="-260" width="290" height="148" as="geometry" />
        </mxCell>
        <mxCell id="jwtGaJk6qlg6mfye-Sgs-11" style="edgeStyle=orthogonalEdgeStyle;rounded=0;orthogonalLoop=1;jettySize=auto;html=1;exitX=0.25;exitY=1;exitDx=0;exitDy=0;entryX=0.625;entryY=0;entryDx=0;entryDy=0;" edge="1" parent="1" source="PpcFPU1yM33MXQpwuD_V-147" target="jwtGaJk6qlg6mfye-Sgs-9">
          <mxGeometry relative="1" as="geometry" />
        </mxCell>
        <mxCell id="PpcFPU1yM33MXQpwuD_V-147" value="ram_A&amp;lt;=ram_A&amp;lt;&amp;lt;8&amp;amp;wdata&lt;div&gt;A_count&amp;lt;=0&lt;/div&gt;&lt;div&gt;load_A_done=1&lt;/div&gt;" style="whiteSpace=wrap;html=1;fontSize=12;fontFamily=Comic Sans MS;fillColor=#FFFF99;rounded=1;arcSize=10;shadow=0;gradientColor=none;movable=1;resizable=1;rotatable=1;deletable=1;editable=1;locked=0;connectable=1;rotation=0;" parent="1" vertex="1">
          <mxGeometry x="1501" y="55" width="160" height="45" as="geometry" />
        </mxCell>
        <mxCell id="PpcFPU1yM33MXQpwuD_V-185" value="&lt;div&gt;&lt;br&gt;&lt;/div&gt;&lt;div&gt;&lt;br&gt;&lt;/div&gt;&lt;div&gt;&lt;br&gt;&lt;/div&gt;&lt;div&gt;&lt;br&gt;&lt;/div&gt;&lt;div&gt;&lt;br&gt;&lt;/div&gt;&lt;div&gt;&lt;br&gt;&lt;/div&gt;&lt;div&gt;&lt;br&gt;&lt;/div&gt;&lt;div&gt;&lt;br&gt;&lt;/div&gt;multiply_state" style="whiteSpace=wrap;html=1;fontSize=21;fontFamily=Comic Sans MS;fillColor=none;spacingLeft=20;shadow=0;gradientColor=none;rounded=1;glass=0;strokeWidth=1;dashed=1;movable=1;resizable=1;rotatable=1;deletable=1;editable=1;locked=0;connectable=1;align=left;container=0;rotation=0;" parent="1" vertex="1">
          <mxGeometry x="1780" y="-280" width="970" height="1130" as="geometry" />
        </mxCell>
        <mxCell id="jwtGaJk6qlg6mfye-Sgs-58" style="edgeStyle=orthogonalEdgeStyle;rounded=0;orthogonalLoop=1;jettySize=auto;html=1;entryX=0;entryY=0.5;entryDx=0;entryDy=0;" edge="1" parent="1" source="PpcFPU1yM33MXQpwuD_V-172" target="jwtGaJk6qlg6mfye-Sgs-56">
          <mxGeometry relative="1" as="geometry" />
        </mxCell>
        <mxCell id="PpcFPU1yM33MXQpwuD_V-172" value="&lt;p data-pm-slice=&quot;1 1 []&quot;&gt;&amp;nbsp; addr = {row_count[1:0]}; //buffer &lt;/p&gt;&lt;p&gt;  addr_1 = (row_count[1:0]+3&#39;b01) % 3&#39;d3 &lt;br/&gt;&lt;/p&gt;&lt;p&gt; addr_2 = (row_count[1:0]+3&#39;b10) % 3&#39;d3&lt;br/&gt;&lt;/p&gt;&lt;p&gt; addr_3 = (row_count[1:0]+3&#39;b11) % 3&#39;d3&lt;br/&gt;&lt;/p&gt;&lt;p&gt; addr_4 = (row_count[1:0]+3&#39;b11) % 3&#39;d3&lt;/p&gt;" style="html=1;rounded=1;absoluteArcSize=1;arcSize=10;shadow=0;fontFamily=Comic Sans MS;fontSize=16;fillColor=#FFFF99;gradientColor=none;movable=1;resizable=1;rotatable=1;deletable=1;editable=1;locked=0;connectable=1;rotation=0;" parent="1" vertex="1">
          <mxGeometry x="1890" y="-188" width="312" height="170" as="geometry" />
        </mxCell>
        <mxCell id="PpcFPU1yM33MXQpwuD_V-177" style="edgeStyle=orthogonalEdgeStyle;rounded=1;orthogonalLoop=1;jettySize=auto;html=1;entryX=0.5;entryY=0;entryDx=0;entryDy=0;exitX=0.625;exitY=1;exitDx=0;exitDy=0;movable=1;resizable=1;rotatable=1;deletable=1;editable=1;locked=0;connectable=1;" parent="1" source="PpcFPU1yM33MXQpwuD_V-173" target="PpcFPU1yM33MXQpwuD_V-176" edge="1">
          <mxGeometry relative="1" as="geometry">
            <Array as="points">
              <mxPoint x="2229" y="-207" />
              <mxPoint x="2376" y="-207" />
            </Array>
          </mxGeometry>
        </mxCell>
        <mxCell id="PpcFPU1yM33MXQpwuD_V-173" value="stripe=1" style="shape=hexagon;perimeter=hexagonPerimeter2;whiteSpace=wrap;html=1;fixedSize=1;fontSize=16;fontFamily=Comic Sans MS;fillColor=#FFFF99;rounded=0;arcSize=10;shadow=0;gradientColor=none;movable=1;resizable=1;rotatable=1;deletable=1;editable=1;locked=0;connectable=1;rotation=0;" parent="1" vertex="1">
          <mxGeometry x="2148" y="-248" width="130" height="30" as="geometry" />
        </mxCell>
        <mxCell id="PpcFPU1yM33MXQpwuD_V-175" style="edgeStyle=orthogonalEdgeStyle;rounded=1;orthogonalLoop=1;jettySize=auto;html=1;exitX=0.375;exitY=1;exitDx=0;exitDy=0;entryX=0.5;entryY=0;entryDx=0;entryDy=0;movable=1;resizable=1;rotatable=1;deletable=1;editable=1;locked=0;connectable=1;" parent="1" source="PpcFPU1yM33MXQpwuD_V-173" target="PpcFPU1yM33MXQpwuD_V-172" edge="1">
          <mxGeometry relative="1" as="geometry">
            <mxPoint x="2132" y="-198" as="targetPoint" />
            <Array as="points">
              <mxPoint x="2197" y="-207" />
              <mxPoint x="2046" y="-207" />
            </Array>
          </mxGeometry>
        </mxCell>
        <mxCell id="jwtGaJk6qlg6mfye-Sgs-60" style="edgeStyle=orthogonalEdgeStyle;rounded=0;orthogonalLoop=1;jettySize=auto;html=1;entryX=1;entryY=0.5;entryDx=0;entryDy=0;" edge="1" parent="1" source="PpcFPU1yM33MXQpwuD_V-176" target="jwtGaJk6qlg6mfye-Sgs-56">
          <mxGeometry relative="1" as="geometry" />
        </mxCell>
        <mxCell id="PpcFPU1yM33MXQpwuD_V-176" value="&lt;p data-pm-slice=&quot;0 0 []&quot;&gt;&amp;nbsp; &amp;nbsp; addr  = {row_count[1:0]}; // buffer&lt;br/&gt;&lt;/p&gt;&lt;p&gt;    addr_1 = (row_count+3&#39;b001) % 3&#39;d4;&lt;br/&gt;&lt;/p&gt;&lt;p&gt;    addr_2 = (row_count+3&#39;b010) % 3&#39;d4;&lt;br/&gt;&lt;/p&gt;&lt;p&gt;    addr_3 = (row_count+3&#39;b011) % 3&#39;d4;&lt;/p&gt;&lt;p&gt;&lt;span style=&quot;background-color: transparent; color: light-dark(rgb(0, 0, 0), rgb(255, 255, 255));&quot;&gt;addr_4 = (row_count+3&#39;b100) % 3&#39;d4;&lt;/span&gt;&lt;/p&gt;" style="html=1;rounded=1;absoluteArcSize=1;arcSize=10;shadow=0;fontFamily=Comic Sans MS;fontSize=16;fillColor=#FFFF99;gradientColor=none;movable=1;resizable=1;rotatable=1;deletable=1;editable=1;locked=0;connectable=1;rotation=0;" parent="1" vertex="1">
          <mxGeometry x="2220" y="-188" width="312" height="170" as="geometry" />
        </mxCell>
        <mxCell id="PpcFPU1yM33MXQpwuD_V-179" value="&lt;p data-pm-slice=&quot;0 0 []&quot;&gt;s_reg_next[addr] = s_reg[addr]&amp;gt;&amp;gt;32&amp;amp;X_load&lt;span style=&quot;background-color: transparent; color: light-dark(rgb(0, 0, 0), rgb(255, 255, 255));&quot;&gt;;&lt;/span&gt;&lt;/p&gt;&lt;p&gt;            count_next = count +1&#39;b1;&lt;br&gt;&lt;/p&gt;" style="html=1;rounded=1;absoluteArcSize=1;arcSize=10;shadow=0;fontFamily=Comic Sans MS;fontSize=16;fillColor=#FFFF99;gradientColor=none;movable=1;resizable=1;rotatable=1;deletable=1;editable=1;locked=0;connectable=1;rotation=0;" parent="1" vertex="1">
          <mxGeometry x="1912" y="80" width="362" height="80" as="geometry" />
        </mxCell>
        <mxCell id="PpcFPU1yM33MXQpwuD_V-182" value="count_mul=8" style="shape=hexagon;perimeter=hexagonPerimeter2;whiteSpace=wrap;html=1;fixedSize=1;fontSize=16;fontFamily=Comic Sans MS;fillColor=#FFFF99;rounded=0;arcSize=10;shadow=0;gradientColor=none;movable=1;resizable=1;rotatable=1;deletable=1;editable=1;locked=0;connectable=1;rotation=0;" parent="1" vertex="1">
          <mxGeometry x="2130" y="680" width="130" height="45" as="geometry" />
        </mxCell>
        <mxCell id="PpcFPU1yM33MXQpwuD_V-197" value="" style="edgeStyle=orthogonalEdgeStyle;rounded=1;orthogonalLoop=1;jettySize=auto;html=1;movable=1;resizable=1;rotatable=1;deletable=1;editable=1;locked=0;connectable=1;" parent="1" source="PpcFPU1yM33MXQpwuD_V-187" target="PpcFPU1yM33MXQpwuD_V-196" edge="1">
          <mxGeometry relative="1" as="geometry" />
        </mxCell>
        <mxCell id="PpcFPU1yM33MXQpwuD_V-199" value="&lt;div&gt;&lt;br&gt;&lt;/div&gt;&lt;div&gt;&lt;br&gt;&lt;/div&gt;&lt;div&gt;&lt;br&gt;&lt;/div&gt;&lt;div&gt;&lt;br&gt;&lt;/div&gt;next_column" style="whiteSpace=wrap;html=1;fontSize=21;fontFamily=Comic Sans MS;fillColor=none;spacingLeft=20;shadow=0;gradientColor=none;rounded=1;glass=0;strokeWidth=1;dashed=1;movable=1;resizable=1;rotatable=1;deletable=1;editable=1;locked=0;connectable=1;align=left;container=0;rotation=0;" parent="1" vertex="1">
          <mxGeometry x="1340" y="770" width="690" height="150" as="geometry" />
        </mxCell>
        <mxCell id="PpcFPU1yM33MXQpwuD_V-219" style="edgeStyle=orthogonalEdgeStyle;rounded=1;orthogonalLoop=1;jettySize=auto;html=1;entryX=1;entryY=0.5;entryDx=0;entryDy=0;movable=1;resizable=1;rotatable=1;deletable=1;editable=1;locked=0;connectable=1;" parent="1" source="PpcFPU1yM33MXQpwuD_V-187" target="PpcFPU1yM33MXQpwuD_V-218" edge="1">
          <mxGeometry relative="1" as="geometry" />
        </mxCell>
        <mxCell id="PpcFPU1yM33MXQpwuD_V-187" value="count_col=3" style="shape=hexagon;perimeter=hexagonPerimeter2;whiteSpace=wrap;html=1;fixedSize=1;fontSize=16;fontFamily=Comic Sans MS;fillColor=#FFFF99;rounded=0;arcSize=10;shadow=0;gradientColor=none;movable=1;resizable=1;rotatable=1;deletable=1;editable=1;locked=0;connectable=1;rotation=0;" parent="1" vertex="1">
          <mxGeometry x="1559" y="819" width="130" height="45" as="geometry" />
        </mxCell>
        <mxCell id="PpcFPU1yM33MXQpwuD_V-196" value="count_col &amp;lt;= count_col+1&lt;div&gt;MU1 &amp;lt;= 0&lt;/div&gt;&lt;div&gt;&lt;span style=&quot;background-color: transparent; color: light-dark(rgb(0, 0, 0), rgb(255, 255, 255));&quot;&gt;MU2 &amp;lt;= 0&lt;/span&gt;&lt;/div&gt;&lt;div&gt;&lt;span style=&quot;background-color: transparent; color: light-dark(rgb(0, 0, 0), rgb(255, 255, 255));&quot;&gt;MU3 &amp;lt;= 0&lt;/span&gt;&lt;/div&gt;&lt;div&gt;&lt;span style=&quot;background-color: transparent; color: light-dark(rgb(0, 0, 0), rgb(255, 255, 255));&quot;&gt;MU4&amp;nbsp; &amp;lt;= 0&lt;/span&gt;&amp;nbsp;&lt;/div&gt;&lt;div&gt;web&amp;nbsp; &amp;lt;= 0&lt;/div&gt;" style="whiteSpace=wrap;html=1;fontSize=16;fontFamily=Comic Sans MS;fillColor=#FFFF99;rounded=1;arcSize=10;shadow=0;gradientColor=none;resizable=1;movable=1;rotatable=1;deletable=1;editable=1;locked=0;connectable=1;rotation=0;" parent="1" vertex="1">
          <mxGeometry x="1739" y="778" width="223" height="127.5" as="geometry" />
        </mxCell>
        <mxCell id="PpcFPU1yM33MXQpwuD_V-213" value="&lt;div&gt;&lt;font style=&quot;font-size: 17px;&quot;&gt;&lt;span style=&quot;background-color: transparent; color: light-dark(rgb(0, 0, 0), rgb(255, 255, 255));&quot;&gt;&amp;nbsp; &amp;nbsp; &amp;nbsp; &amp;nbsp; &amp;nbsp; &amp;nbsp; &amp;nbsp; &amp;nbsp; &amp;nbsp; &amp;nbsp; &amp;nbsp; &amp;nbsp; &amp;nbsp; &amp;nbsp; &amp;nbsp; &amp;nbsp;start_writeback&lt;/span&gt;&lt;br&gt;&lt;/font&gt;&lt;/div&gt;&lt;div&gt;&lt;font style=&quot;font-size: 17px;&quot;&gt;&lt;span style=&quot;background-color: transparent; color: light-dark(rgb(0, 0, 0), rgb(255, 255, 255));&quot;&gt;&lt;br&gt;&lt;/span&gt;&lt;/font&gt;&lt;/div&gt;&lt;div&gt;&lt;font style=&quot;font-size: 17px;&quot;&gt;&lt;span style=&quot;background-color: transparent; color: light-dark(rgb(0, 0, 0), rgb(255, 255, 255));&quot;&gt;&lt;br&gt;&lt;/span&gt;&lt;/font&gt;&lt;/div&gt;&lt;div&gt;&lt;font style=&quot;font-size: 17px;&quot;&gt;&lt;span style=&quot;background-color: transparent; color: light-dark(rgb(0, 0, 0), rgb(255, 255, 255));&quot;&gt;&lt;br&gt;&lt;/span&gt;&lt;/font&gt;&lt;/div&gt;&lt;div&gt;&lt;font style=&quot;font-size: 17px;&quot;&gt;&lt;span style=&quot;background-color: transparent; color: light-dark(rgb(0, 0, 0), rgb(255, 255, 255));&quot;&gt;&lt;br&gt;&lt;/span&gt;&lt;/font&gt;&lt;/div&gt;&lt;div&gt;&lt;font style=&quot;font-size: 17px;&quot;&gt;&lt;span style=&quot;background-color: transparent; color: light-dark(rgb(0, 0, 0), rgb(255, 255, 255));&quot;&gt;&lt;br&gt;&lt;/span&gt;&lt;/font&gt;&lt;/div&gt;&lt;div&gt;&lt;font style=&quot;font-size: 17px;&quot;&gt;&lt;span style=&quot;background-color: transparent; color: light-dark(rgb(0, 0, 0), rgb(255, 255, 255));&quot;&gt;&lt;br&gt;&lt;/span&gt;&lt;/font&gt;&lt;/div&gt;&lt;div&gt;&lt;span style=&quot;background-color: transparent; color: light-dark(rgb(0, 0, 0), rgb(255, 255, 255));&quot;&gt;&lt;font style=&quot;font-size: 17px;&quot;&gt;&lt;br&gt;&lt;/font&gt;&lt;/span&gt;&lt;/div&gt;&lt;div&gt;&lt;span style=&quot;background-color: transparent; color: light-dark(rgb(0, 0, 0), rgb(255, 255, 255));&quot;&gt;&lt;br&gt;&lt;/span&gt;&lt;/div&gt;" style="whiteSpace=wrap;html=1;fontSize=21;fontFamily=Comic Sans MS;fillColor=none;spacingLeft=20;shadow=0;gradientColor=none;rounded=1;glass=0;strokeWidth=1;dashed=1;movable=1;resizable=1;rotatable=1;deletable=1;editable=1;locked=0;connectable=1;align=left;container=0;rotation=0;" parent="1" vertex="1">
          <mxGeometry x="1436" y="1350" width="320" height="262.5" as="geometry" />
        </mxCell>
        <mxCell id="PpcFPU1yM33MXQpwuD_V-203" style="edgeStyle=orthogonalEdgeStyle;rounded=1;orthogonalLoop=1;jettySize=auto;html=1;entryX=0.5;entryY=0;entryDx=0;entryDy=0;movable=1;resizable=1;rotatable=1;deletable=1;editable=1;locked=0;connectable=1;" parent="1" source="PpcFPU1yM33MXQpwuD_V-200" target="PpcFPU1yM33MXQpwuD_V-201" edge="1">
          <mxGeometry relative="1" as="geometry" />
        </mxCell>
        <mxCell id="PpcFPU1yM33MXQpwuD_V-207" style="edgeStyle=orthogonalEdgeStyle;rounded=1;orthogonalLoop=1;jettySize=auto;html=1;movable=1;resizable=1;rotatable=1;deletable=1;editable=1;locked=0;connectable=1;" parent="1" source="PpcFPU1yM33MXQpwuD_V-200" edge="1">
          <mxGeometry relative="1" as="geometry">
            <mxPoint x="1506" y="1382" as="targetPoint" />
          </mxGeometry>
        </mxCell>
        <mxCell id="PpcFPU1yM33MXQpwuD_V-200" value="web = 1" style="shape=hexagon;perimeter=hexagonPerimeter2;whiteSpace=wrap;html=1;fixedSize=1;fontSize=16;fontFamily=Comic Sans MS;fillColor=#FFFF99;rounded=0;arcSize=10;shadow=0;gradientColor=none;movable=1;resizable=1;rotatable=1;deletable=1;editable=1;locked=0;connectable=1;rotation=0;" parent="1" vertex="1">
          <mxGeometry x="1537" y="1403" width="130" height="45" as="geometry" />
        </mxCell>
        <mxCell id="PpcFPU1yM33MXQpwuD_V-211" style="edgeStyle=orthogonalEdgeStyle;rounded=1;orthogonalLoop=1;jettySize=auto;html=1;entryX=0.556;entryY=0.967;entryDx=0;entryDy=0;entryPerimeter=0;movable=1;resizable=1;rotatable=1;deletable=1;editable=1;locked=0;connectable=1;" parent="1" source="PpcFPU1yM33MXQpwuD_V-201" target="PpcFPU1yM33MXQpwuD_V-209" edge="1">
          <mxGeometry relative="1" as="geometry">
            <mxPoint x="1316" y="1531" as="targetPoint" />
            <Array as="points">
              <mxPoint x="1358" y="1572" />
            </Array>
          </mxGeometry>
        </mxCell>
        <mxCell id="PpcFPU1yM33MXQpwuD_V-215" value="&lt;div&gt;&lt;br&gt;&lt;/div&gt;&lt;div&gt;&lt;font style=&quot;font-size: 17px;&quot;&gt;&lt;span style=&quot;background-color: transparent; color: light-dark(rgb(0, 0, 0), rgb(255, 255, 255));&quot;&gt;&lt;br&gt;&lt;/span&gt;&lt;/font&gt;&lt;/div&gt;&lt;div&gt;&lt;font style=&quot;font-size: 17px;&quot;&gt;&lt;span style=&quot;background-color: transparent; color: light-dark(rgb(0, 0, 0), rgb(255, 255, 255));&quot;&gt;&lt;br&gt;&lt;/span&gt;&lt;/font&gt;&lt;/div&gt;&lt;div&gt;&lt;font style=&quot;font-size: 17px;&quot;&gt;&lt;span style=&quot;background-color: transparent; color: light-dark(rgb(0, 0, 0), rgb(255, 255, 255));&quot;&gt;&lt;br&gt;&lt;/span&gt;&lt;/font&gt;&lt;/div&gt;&lt;div&gt;&lt;font style=&quot;font-size: 17px;&quot;&gt;&lt;span style=&quot;background-color: transparent; color: light-dark(rgb(0, 0, 0), rgb(255, 255, 255));&quot;&gt;&lt;br&gt;&lt;/span&gt;&lt;/font&gt;&lt;/div&gt;&lt;div&gt;&lt;font style=&quot;font-size: 17px;&quot;&gt;&lt;span style=&quot;background-color: transparent; color: light-dark(rgb(0, 0, 0), rgb(255, 255, 255));&quot;&gt;&lt;br&gt;&lt;/span&gt;&lt;/font&gt;&lt;/div&gt;&lt;div&gt;&lt;font style=&quot;font-size: 17px;&quot;&gt;&lt;span style=&quot;background-color: transparent; color: light-dark(rgb(0, 0, 0), rgb(255, 255, 255));&quot;&gt;writeback_next&lt;/span&gt;&lt;/font&gt;&lt;/div&gt;" style="whiteSpace=wrap;html=1;fontSize=21;fontFamily=Comic Sans MS;fillColor=none;spacingLeft=20;shadow=0;gradientColor=none;rounded=1;glass=0;strokeWidth=1;dashed=1;movable=1;resizable=1;rotatable=1;deletable=1;editable=1;locked=0;connectable=1;align=left;container=0;rotation=0;" parent="1" vertex="1">
          <mxGeometry x="1097" y="1353" width="325" height="250" as="geometry" />
        </mxCell>
        <mxCell id="PpcFPU1yM33MXQpwuD_V-201" value="ram(ram_addr) &amp;lt;= MU1&lt;div&gt;result[0]&amp;nbsp; &amp;nbsp; &amp;nbsp;&amp;lt;= MU2&lt;/div&gt;&lt;div&gt;result[1]&amp;nbsp; &amp;nbsp; &amp;nbsp;&amp;lt;= MU3&lt;br&gt;&lt;/div&gt;&lt;div&gt;result[2]&amp;nbsp; &amp;nbsp; &amp;nbsp;&amp;lt;= MU4&lt;br&gt;&lt;/div&gt;&lt;div&gt;ram_addr&amp;nbsp; &amp;lt;= ram_addr + 1&lt;/div&gt;&lt;div&gt;count_save &amp;lt;= 0&lt;/div&gt;" style="whiteSpace=wrap;html=1;fontSize=16;fontFamily=Comic Sans MS;fillColor=#FFFF99;rounded=1;arcSize=10;shadow=0;gradientColor=none;resizable=1;movable=1;rotatable=1;deletable=1;editable=1;locked=0;connectable=1;rotation=0;" parent="1" vertex="1">
          <mxGeometry x="1489" y="1473" width="223" height="117.5" as="geometry" />
        </mxCell>
        <mxCell id="PpcFPU1yM33MXQpwuD_V-227" style="edgeStyle=orthogonalEdgeStyle;rounded=1;orthogonalLoop=1;jettySize=auto;html=1;entryX=0.5;entryY=0;entryDx=0;entryDy=0;movable=1;resizable=1;rotatable=1;deletable=1;editable=1;locked=0;connectable=1;" parent="1" source="PpcFPU1yM33MXQpwuD_V-202" target="PpcFPU1yM33MXQpwuD_V-209" edge="1">
          <mxGeometry relative="1" as="geometry">
            <Array as="points">
              <mxPoint x="1351" y="1482" />
              <mxPoint x="1351" y="1482" />
            </Array>
          </mxGeometry>
        </mxCell>
        <mxCell id="PpcFPU1yM33MXQpwuD_V-202" value="ram(ram_addr) &amp;lt;= result[count_save]&lt;div&gt;ram_addr&amp;nbsp; &amp;nbsp; &amp;nbsp;&amp;lt;= ram_addr + 1&lt;/div&gt;&lt;div&gt;count_save&amp;nbsp; &amp;nbsp; &amp;nbsp;&amp;lt;= count_save + 1&lt;/div&gt;" style="whiteSpace=wrap;html=1;fontSize=16;fontFamily=Comic Sans MS;fillColor=#FFFF99;rounded=1;arcSize=10;shadow=0;gradientColor=none;resizable=1;movable=1;rotatable=1;deletable=1;editable=1;locked=0;connectable=1;rotation=0;" parent="1" vertex="1">
          <mxGeometry x="1116" y="1385" width="283" height="87.5" as="geometry" />
        </mxCell>
        <mxCell id="PpcFPU1yM33MXQpwuD_V-225" style="edgeStyle=orthogonalEdgeStyle;rounded=1;orthogonalLoop=1;jettySize=auto;html=1;exitX=1;exitY=0.5;exitDx=0;exitDy=0;entryX=0.5;entryY=0;entryDx=0;entryDy=0;movable=1;resizable=1;rotatable=1;deletable=1;editable=1;locked=0;connectable=1;" parent="1" source="PpcFPU1yM33MXQpwuD_V-209" target="PpcFPU1yM33MXQpwuD_V-200" edge="1">
          <mxGeometry relative="1" as="geometry">
            <Array as="points">
              <mxPoint x="1456" y="1531" />
              <mxPoint x="1456" y="1382" />
              <mxPoint x="1601" y="1382" />
            </Array>
          </mxGeometry>
        </mxCell>
        <mxCell id="PpcFPU1yM33MXQpwuD_V-226" style="edgeStyle=orthogonalEdgeStyle;rounded=1;orthogonalLoop=1;jettySize=auto;html=1;entryX=0.5;entryY=1;entryDx=0;entryDy=0;movable=1;resizable=1;rotatable=1;deletable=1;editable=1;locked=0;connectable=1;" parent="1" source="PpcFPU1yM33MXQpwuD_V-209" target="PpcFPU1yM33MXQpwuD_V-202" edge="1">
          <mxGeometry relative="1" as="geometry">
            <Array as="points">
              <mxPoint x="1258" y="1532" />
              <mxPoint x="1258" y="1493" />
            </Array>
          </mxGeometry>
        </mxCell>
        <mxCell id="PpcFPU1yM33MXQpwuD_V-209" value="count_save = 3" style="shape=hexagon;perimeter=hexagonPerimeter2;whiteSpace=wrap;html=1;fixedSize=1;fontSize=16;fontFamily=Comic Sans MS;fillColor=#FFFF99;rounded=0;arcSize=10;shadow=0;gradientColor=none;movable=1;resizable=1;rotatable=1;deletable=1;editable=1;locked=0;connectable=1;rotation=0;" parent="1" vertex="1">
          <mxGeometry x="1287" y="1509" width="130" height="45" as="geometry" />
        </mxCell>
        <mxCell id="PpcFPU1yM33MXQpwuD_V-218" value="finish &amp;lt;= 1" style="html=1;rounded=1;absoluteArcSize=1;arcSize=10;shadow=0;fontFamily=Comic Sans MS;fontSize=16;fillColor=#FFFF99;gradientColor=none;movable=1;resizable=1;rotatable=1;deletable=1;editable=1;locked=0;connectable=1;rotation=0;" parent="1" vertex="1">
          <mxGeometry x="1400" y="819" width="113" height="45" as="geometry" />
        </mxCell>
        <mxCell id="PpcFPU1yM33MXQpwuD_V-220" style="edgeStyle=orthogonalEdgeStyle;rounded=1;orthogonalLoop=1;jettySize=auto;html=1;entryX=0.5;entryY=0;entryDx=0;entryDy=0;movable=1;resizable=1;rotatable=1;deletable=1;editable=1;locked=0;connectable=1;" parent="1" source="PpcFPU1yM33MXQpwuD_V-107" target="jwtGaJk6qlg6mfye-Sgs-1" edge="1">
          <mxGeometry relative="1" as="geometry">
            <Array as="points" />
            <mxPoint x="1181.04" y="-37.48000000000002" as="targetPoint" />
          </mxGeometry>
        </mxCell>
        <mxCell id="PpcFPU1yM33MXQpwuD_V-228" value="T" style="text;strokeColor=none;fillColor=none;align=left;verticalAlign=top;spacingLeft=4;spacingRight=4;overflow=hidden;rotatable=1;points=[[0,0.5],[1,0.5]];portConstraint=eastwest;shadow=0;fontFamily=Comic Sans MS;fontSize=26;movable=1;resizable=1;deletable=1;editable=1;locked=0;connectable=1;rotation=0;" parent="1" vertex="1">
          <mxGeometry x="1150" y="-130" width="40" height="40" as="geometry" />
        </mxCell>
        <mxCell id="PpcFPU1yM33MXQpwuD_V-230" value="T" style="text;strokeColor=none;fillColor=none;align=left;verticalAlign=top;spacingLeft=4;spacingRight=4;overflow=hidden;rotatable=1;points=[[0,0.5],[1,0.5]];portConstraint=eastwest;shadow=0;fontFamily=Comic Sans MS;fontSize=20;movable=1;resizable=1;deletable=1;editable=1;locked=0;connectable=1;rotation=0;" parent="1" vertex="1">
          <mxGeometry x="1370" y="20" width="30" height="30.04" as="geometry" />
        </mxCell>
        <mxCell id="PpcFPU1yM33MXQpwuD_V-231" value="T" style="text;strokeColor=none;fillColor=none;align=left;verticalAlign=top;spacingLeft=4;spacingRight=4;overflow=hidden;rotatable=1;points=[[0,0.5],[1,0.5]];portConstraint=eastwest;shadow=0;fontFamily=Comic Sans MS;fontSize=20;movable=1;resizable=1;deletable=1;editable=1;locked=0;connectable=1;rotation=0;" parent="1" vertex="1">
          <mxGeometry x="1550" y="20" width="30" height="30.04" as="geometry" />
        </mxCell>
        <mxCell id="PpcFPU1yM33MXQpwuD_V-234" value="T" style="text;strokeColor=none;fillColor=none;align=left;verticalAlign=top;spacingLeft=4;spacingRight=4;overflow=hidden;rotatable=1;points=[[0,0.5],[1,0.5]];portConstraint=eastwest;shadow=0;fontFamily=Comic Sans MS;fontSize=20;movable=1;resizable=1;deletable=1;editable=1;locked=0;connectable=1;rotation=0;" parent="1" vertex="1">
          <mxGeometry x="2010" y="-217" width="30" height="30.04" as="geometry" />
        </mxCell>
        <mxCell id="PpcFPU1yM33MXQpwuD_V-236" value="T" style="text;strokeColor=none;fillColor=none;align=left;verticalAlign=top;spacingLeft=4;spacingRight=4;overflow=hidden;rotatable=1;points=[[0,0.5],[1,0.5]];portConstraint=eastwest;shadow=0;fontFamily=Comic Sans MS;fontSize=20;movable=1;resizable=1;deletable=1;editable=1;locked=0;connectable=1;rotation=0;" parent="1" vertex="1">
          <mxGeometry x="1528" y="808" width="30" height="30.04" as="geometry" />
        </mxCell>
        <mxCell id="PpcFPU1yM33MXQpwuD_V-237" value="T" style="text;strokeColor=none;fillColor=none;align=left;verticalAlign=top;spacingLeft=4;spacingRight=4;overflow=hidden;rotatable=1;points=[[0,0.5],[1,0.5]];portConstraint=eastwest;shadow=0;fontFamily=Comic Sans MS;fontSize=20;movable=1;resizable=1;deletable=1;editable=1;locked=0;connectable=1;rotation=0;" parent="1" vertex="1">
          <mxGeometry x="1602" y="1442" width="30" height="30.04" as="geometry" />
        </mxCell>
        <mxCell id="PpcFPU1yM33MXQpwuD_V-238" value="T" style="text;strokeColor=none;fillColor=none;align=left;verticalAlign=top;spacingLeft=4;spacingRight=4;overflow=hidden;rotatable=1;points=[[0,0.5],[1,0.5]];portConstraint=eastwest;shadow=0;fontFamily=Comic Sans MS;fontSize=20;movable=1;resizable=1;deletable=1;editable=1;locked=0;connectable=1;rotation=0;" parent="1" vertex="1">
          <mxGeometry x="1416" y="1497" width="30" height="30.04" as="geometry" />
        </mxCell>
        <mxCell id="PpcFPU1yM33MXQpwuD_V-239" value="F" style="text;strokeColor=none;fillColor=none;align=left;verticalAlign=top;spacingLeft=4;spacingRight=4;overflow=hidden;rotatable=1;points=[[0,0.5],[1,0.5]];portConstraint=eastwest;shadow=0;fontFamily=Comic Sans MS;fontSize=20;movable=1;resizable=1;deletable=1;editable=1;locked=0;connectable=1;rotation=0;" parent="1" vertex="1">
          <mxGeometry x="1266" y="1498" width="30" height="30.04" as="geometry" />
        </mxCell>
        <mxCell id="PpcFPU1yM33MXQpwuD_V-240" value="F" style="text;strokeColor=none;fillColor=none;align=left;verticalAlign=top;spacingLeft=4;spacingRight=4;overflow=hidden;rotatable=1;points=[[0,0.5],[1,0.5]];portConstraint=eastwest;shadow=0;fontFamily=Comic Sans MS;fontSize=20;movable=1;resizable=1;deletable=1;editable=1;locked=0;connectable=1;rotation=0;" parent="1" vertex="1">
          <mxGeometry x="1516" y="1395" width="30" height="30.04" as="geometry" />
        </mxCell>
        <mxCell id="PpcFPU1yM33MXQpwuD_V-244" value="F" style="text;strokeColor=none;fillColor=none;align=left;verticalAlign=top;spacingLeft=4;spacingRight=4;overflow=hidden;rotatable=1;points=[[0,0.5],[1,0.5]];portConstraint=eastwest;shadow=0;fontFamily=Comic Sans MS;fontSize=20;movable=1;resizable=1;deletable=1;editable=1;locked=0;connectable=1;rotation=0;" parent="1" vertex="1">
          <mxGeometry x="1480" y="-40" width="30" height="30.04" as="geometry" />
        </mxCell>
        <mxCell id="PpcFPU1yM33MXQpwuD_V-246" value="F" style="text;strokeColor=none;fillColor=none;align=left;verticalAlign=top;spacingLeft=4;spacingRight=4;overflow=hidden;rotatable=1;points=[[0,0.5],[1,0.5]];portConstraint=eastwest;shadow=0;fontFamily=Comic Sans MS;fontSize=20;movable=1;resizable=1;deletable=1;editable=1;locked=0;connectable=1;rotation=0;" parent="1" vertex="1">
          <mxGeometry x="1270" y="-195" width="30" height="30.04" as="geometry" />
        </mxCell>
        <mxCell id="PpcFPU1yM33MXQpwuD_V-247" value="F" style="text;strokeColor=none;fillColor=none;align=left;verticalAlign=top;spacingLeft=4;spacingRight=4;overflow=hidden;rotatable=1;points=[[0,0.5],[1,0.5]];portConstraint=eastwest;shadow=0;fontFamily=Comic Sans MS;fontSize=20;movable=1;resizable=1;deletable=1;editable=1;locked=0;connectable=1;rotation=0;" parent="1" vertex="1">
          <mxGeometry x="2383" y="-217" width="30" height="30.04" as="geometry" />
        </mxCell>
        <mxCell id="PpcFPU1yM33MXQpwuD_V-250" value="F" style="text;strokeColor=none;fillColor=none;align=left;verticalAlign=top;spacingLeft=4;spacingRight=4;overflow=hidden;rotatable=1;points=[[0,0.5],[1,0.5]];portConstraint=eastwest;shadow=0;fontFamily=Comic Sans MS;fontSize=20;movable=1;resizable=1;deletable=1;editable=1;locked=0;connectable=1;rotation=0;" parent="1" vertex="1">
          <mxGeometry x="1700" y="808" width="30" height="30.04" as="geometry" />
        </mxCell>
        <mxCell id="jwtGaJk6qlg6mfye-Sgs-5" value="" style="edgeStyle=orthogonalEdgeStyle;rounded=0;orthogonalLoop=1;jettySize=auto;html=1;entryX=0;entryY=0.5;entryDx=0;entryDy=0;" edge="1" parent="1" source="jwtGaJk6qlg6mfye-Sgs-1" target="PpcFPU1yM33MXQpwuD_V-135">
          <mxGeometry relative="1" as="geometry" />
        </mxCell>
        <mxCell id="jwtGaJk6qlg6mfye-Sgs-1" value="&lt;div style=&quot;text-wrap-mode: wrap;&quot;&gt;load_en&amp;nbsp; &amp;nbsp;=1&lt;/div&gt;&lt;span style=&quot;text-wrap-mode: wrap;&quot;&gt;load_A_en=1&lt;/span&gt;" style="html=1;rounded=1;absoluteArcSize=1;arcSize=10;shadow=0;fontFamily=Comic Sans MS;fontSize=16;fillColor=#FFFF99;gradientColor=none;movable=1;resizable=1;rotatable=1;deletable=1;editable=1;locked=0;connectable=1;rotation=0;" vertex="1" parent="1">
          <mxGeometry x="1120" y="-50.5" width="150" height="70.5" as="geometry" />
        </mxCell>
        <mxCell id="jwtGaJk6qlg6mfye-Sgs-12" style="edgeStyle=orthogonalEdgeStyle;rounded=0;orthogonalLoop=1;jettySize=auto;html=1;exitX=0;exitY=0.5;exitDx=0;exitDy=0;entryX=0;entryY=0.75;entryDx=0;entryDy=0;" edge="1" parent="1" source="jwtGaJk6qlg6mfye-Sgs-9" target="PpcFPU1yM33MXQpwuD_V-135">
          <mxGeometry relative="1" as="geometry">
            <Array as="points">
              <mxPoint x="1290" y="153" />
              <mxPoint x="1290" y="-6" />
            </Array>
          </mxGeometry>
        </mxCell>
        <mxCell id="jwtGaJk6qlg6mfye-Sgs-9" value="load_A_done=1" style="shape=hexagon;perimeter=hexagonPerimeter2;whiteSpace=wrap;html=1;fixedSize=1;fontSize=16;fontFamily=Comic Sans MS;fillColor=#FFFF99;rounded=0;arcSize=10;shadow=0;gradientColor=none;movable=1;resizable=1;rotatable=1;deletable=1;editable=1;locked=0;connectable=1;rotation=0;" vertex="1" parent="1">
          <mxGeometry x="1410" y="130" width="162.5" height="45" as="geometry" />
        </mxCell>
        <mxCell id="jwtGaJk6qlg6mfye-Sgs-13" value="&lt;div&gt;&lt;br&gt;&lt;/div&gt;&lt;div&gt;&lt;br&gt;&lt;/div&gt;&lt;div&gt;&lt;br&gt;&lt;/div&gt;&lt;div&gt;&lt;br&gt;&lt;/div&gt;&lt;div&gt;&lt;br&gt;&lt;/div&gt;first_data" style="whiteSpace=wrap;html=1;fontSize=24;fontFamily=Comic Sans MS;fillColor=none;spacingLeft=20;shadow=0;gradientColor=none;rounded=1;glass=0;strokeWidth=1;dashed=1;movable=1;resizable=1;rotatable=1;deletable=1;editable=1;locked=0;connectable=1;align=left;container=0;rotation=0;" vertex="1" parent="1">
          <mxGeometry x="1090" y="220" width="600" height="290" as="geometry" />
        </mxCell>
        <mxCell id="jwtGaJk6qlg6mfye-Sgs-14" value="" style="edgeStyle=orthogonalEdgeStyle;rounded=1;orthogonalLoop=1;jettySize=auto;html=1;movable=1;resizable=1;rotatable=1;deletable=1;editable=1;locked=0;connectable=1;" edge="1" parent="1" source="jwtGaJk6qlg6mfye-Sgs-16" target="jwtGaJk6qlg6mfye-Sgs-18">
          <mxGeometry relative="1" as="geometry" />
        </mxCell>
        <mxCell id="jwtGaJk6qlg6mfye-Sgs-15" value="" style="edgeStyle=orthogonalEdgeStyle;rounded=0;orthogonalLoop=1;jettySize=auto;html=1;entryX=0.5;entryY=0;entryDx=0;entryDy=0;" edge="1" parent="1" source="jwtGaJk6qlg6mfye-Sgs-16" target="jwtGaJk6qlg6mfye-Sgs-20">
          <mxGeometry relative="1" as="geometry" />
        </mxCell>
        <mxCell id="jwtGaJk6qlg6mfye-Sgs-16" value="A_count=0/1" style="shape=hexagon;perimeter=hexagonPerimeter2;whiteSpace=wrap;html=1;fixedSize=1;fontSize=16;fontFamily=Comic Sans MS;fillColor=#FFFF99;rounded=0;arcSize=10;shadow=0;gradientColor=none;movable=1;resizable=1;rotatable=1;deletable=1;editable=1;locked=0;connectable=1;rotation=0;" vertex="1" parent="1">
          <mxGeometry x="1328" y="262" width="140" height="45" as="geometry" />
        </mxCell>
        <mxCell id="jwtGaJk6qlg6mfye-Sgs-17" value="" style="edgeStyle=orthogonalEdgeStyle;rounded=0;orthogonalLoop=1;jettySize=auto;html=1;entryX=0.5;entryY=0;entryDx=0;entryDy=0;" edge="1" parent="1" source="jwtGaJk6qlg6mfye-Sgs-18" target="jwtGaJk6qlg6mfye-Sgs-22">
          <mxGeometry relative="1" as="geometry" />
        </mxCell>
        <mxCell id="jwtGaJk6qlg6mfye-Sgs-18" value="A_count=2" style="shape=hexagon;perimeter=hexagonPerimeter2;whiteSpace=wrap;html=1;fixedSize=1;fontSize=16;fontFamily=Comic Sans MS;fillColor=#FFFF99;rounded=0;arcSize=10;shadow=0;gradientColor=none;movable=1;resizable=1;rotatable=1;deletable=1;editable=1;locked=0;connectable=1;rotation=0;" vertex="1" parent="1">
          <mxGeometry x="1516" y="262" width="130" height="45" as="geometry" />
        </mxCell>
        <mxCell id="jwtGaJk6qlg6mfye-Sgs-19" style="edgeStyle=orthogonalEdgeStyle;rounded=0;orthogonalLoop=1;jettySize=auto;html=1;exitX=0.75;exitY=1;exitDx=0;exitDy=0;entryX=0.375;entryY=0;entryDx=0;entryDy=0;" edge="1" parent="1" source="jwtGaJk6qlg6mfye-Sgs-20" target="jwtGaJk6qlg6mfye-Sgs-29">
          <mxGeometry relative="1" as="geometry" />
        </mxCell>
        <mxCell id="jwtGaJk6qlg6mfye-Sgs-20" value="ram_A&amp;lt;=ram_A&amp;lt;&amp;lt;32&amp;amp;wdata&lt;div&gt;A_count++&lt;/div&gt;&lt;div&gt;load_A_done=0&lt;/div&gt;" style="whiteSpace=wrap;html=1;fontSize=12;fontFamily=Comic Sans MS;fillColor=#FFFF99;rounded=1;arcSize=10;shadow=0;gradientColor=none;movable=1;resizable=1;rotatable=1;deletable=1;editable=1;locked=0;connectable=1;rotation=0;" vertex="1" parent="1">
          <mxGeometry x="1318" y="355" width="160" height="45" as="geometry" />
        </mxCell>
        <mxCell id="jwtGaJk6qlg6mfye-Sgs-21" style="edgeStyle=orthogonalEdgeStyle;rounded=0;orthogonalLoop=1;jettySize=auto;html=1;exitX=0.25;exitY=1;exitDx=0;exitDy=0;entryX=0.625;entryY=0;entryDx=0;entryDy=0;" edge="1" parent="1" source="jwtGaJk6qlg6mfye-Sgs-22" target="jwtGaJk6qlg6mfye-Sgs-29">
          <mxGeometry relative="1" as="geometry" />
        </mxCell>
        <mxCell id="jwtGaJk6qlg6mfye-Sgs-22" value="ram_A&amp;lt;=ram_A&amp;lt;&amp;lt;8&amp;amp;wdata&lt;div&gt;A_count&amp;lt;=0&lt;/div&gt;&lt;div&gt;load_A_done=1&lt;/div&gt;" style="whiteSpace=wrap;html=1;fontSize=12;fontFamily=Comic Sans MS;fillColor=#FFFF99;rounded=1;arcSize=10;shadow=0;gradientColor=none;movable=1;resizable=1;rotatable=1;deletable=1;editable=1;locked=0;connectable=1;rotation=0;" vertex="1" parent="1">
          <mxGeometry x="1501" y="355" width="160" height="45" as="geometry" />
        </mxCell>
        <mxCell id="jwtGaJk6qlg6mfye-Sgs-23" value="T" style="text;strokeColor=none;fillColor=none;align=left;verticalAlign=top;spacingLeft=4;spacingRight=4;overflow=hidden;rotatable=1;points=[[0,0.5],[1,0.5]];portConstraint=eastwest;shadow=0;fontFamily=Comic Sans MS;fontSize=20;movable=1;resizable=1;deletable=1;editable=1;locked=0;connectable=1;rotation=0;" vertex="1" parent="1">
          <mxGeometry x="1370" y="330" width="30" height="30.04" as="geometry" />
        </mxCell>
        <mxCell id="jwtGaJk6qlg6mfye-Sgs-24" value="T" style="text;strokeColor=none;fillColor=none;align=left;verticalAlign=top;spacingLeft=4;spacingRight=4;overflow=hidden;rotatable=1;points=[[0,0.5],[1,0.5]];portConstraint=eastwest;shadow=0;fontFamily=Comic Sans MS;fontSize=20;movable=1;resizable=1;deletable=1;editable=1;locked=0;connectable=1;rotation=0;" vertex="1" parent="1">
          <mxGeometry x="1550" y="340" width="30" height="30.04" as="geometry" />
        </mxCell>
        <mxCell id="jwtGaJk6qlg6mfye-Sgs-25" value="F" style="text;strokeColor=none;fillColor=none;align=left;verticalAlign=top;spacingLeft=4;spacingRight=4;overflow=hidden;rotatable=1;points=[[0,0.5],[1,0.5]];portConstraint=eastwest;shadow=0;fontFamily=Comic Sans MS;fontSize=20;movable=1;resizable=1;deletable=1;editable=1;locked=0;connectable=1;rotation=0;" vertex="1" parent="1">
          <mxGeometry x="1480" y="260" width="30" height="30.04" as="geometry" />
        </mxCell>
        <mxCell id="jwtGaJk6qlg6mfye-Sgs-26" value="" style="edgeStyle=orthogonalEdgeStyle;rounded=0;orthogonalLoop=1;jettySize=auto;html=1;entryX=0;entryY=0.5;entryDx=0;entryDy=0;" edge="1" parent="1" source="jwtGaJk6qlg6mfye-Sgs-27" target="jwtGaJk6qlg6mfye-Sgs-16">
          <mxGeometry relative="1" as="geometry" />
        </mxCell>
        <mxCell id="jwtGaJk6qlg6mfye-Sgs-27" value="&lt;div style=&quot;text-wrap-mode: wrap;&quot;&gt;load_en=1&lt;/div&gt;&lt;span style=&quot;text-wrap-mode: wrap;&quot;&gt;load_A_en=1&lt;/span&gt;" style="html=1;rounded=1;absoluteArcSize=1;arcSize=10;shadow=0;fontFamily=Comic Sans MS;fontSize=16;fillColor=#FFFF99;gradientColor=none;movable=1;resizable=1;rotatable=1;deletable=1;editable=1;locked=0;connectable=1;rotation=0;" vertex="1" parent="1">
          <mxGeometry x="1120" y="260" width="150" height="50" as="geometry" />
        </mxCell>
        <mxCell id="jwtGaJk6qlg6mfye-Sgs-28" style="edgeStyle=orthogonalEdgeStyle;rounded=0;orthogonalLoop=1;jettySize=auto;html=1;exitX=0;exitY=0.5;exitDx=0;exitDy=0;entryX=0;entryY=0.75;entryDx=0;entryDy=0;" edge="1" parent="1" source="jwtGaJk6qlg6mfye-Sgs-29" target="jwtGaJk6qlg6mfye-Sgs-16">
          <mxGeometry relative="1" as="geometry">
            <Array as="points">
              <mxPoint x="1290" y="453" />
              <mxPoint x="1290" y="294" />
            </Array>
          </mxGeometry>
        </mxCell>
        <mxCell id="jwtGaJk6qlg6mfye-Sgs-29" value="load_A_done=1" style="shape=hexagon;perimeter=hexagonPerimeter2;whiteSpace=wrap;html=1;fixedSize=1;fontSize=16;fontFamily=Comic Sans MS;fillColor=#FFFF99;rounded=0;arcSize=10;shadow=0;gradientColor=none;movable=1;resizable=1;rotatable=1;deletable=1;editable=1;locked=0;connectable=1;rotation=0;" vertex="1" parent="1">
          <mxGeometry x="1410" y="430" width="162.5" height="45" as="geometry" />
        </mxCell>
        <mxCell id="jwtGaJk6qlg6mfye-Sgs-55" value="T" style="text;strokeColor=none;fillColor=none;align=left;verticalAlign=top;spacingLeft=4;spacingRight=4;overflow=hidden;rotatable=1;points=[[0,0.5],[1,0.5]];portConstraint=eastwest;shadow=0;fontFamily=Comic Sans MS;fontSize=20;movable=1;resizable=1;deletable=1;editable=1;locked=0;connectable=1;rotation=0;" vertex="1" parent="1">
          <mxGeometry x="2065" y="40" width="30" height="30.04" as="geometry" />
        </mxCell>
        <mxCell id="jwtGaJk6qlg6mfye-Sgs-57" value="" style="edgeStyle=orthogonalEdgeStyle;rounded=0;orthogonalLoop=1;jettySize=auto;html=1;entryX=0.5;entryY=0;entryDx=0;entryDy=0;" edge="1" parent="1" target="PpcFPU1yM33MXQpwuD_V-179">
          <mxGeometry relative="1" as="geometry">
            <mxPoint x="2182" y="42.04" as="sourcePoint" />
            <mxPoint x="2095" y="70.03999999999999" as="targetPoint" />
            <Array as="points">
              <mxPoint x="2182" y="62" />
              <mxPoint x="2093" y="62" />
            </Array>
          </mxGeometry>
        </mxCell>
        <mxCell id="jwtGaJk6qlg6mfye-Sgs-74" style="edgeStyle=orthogonalEdgeStyle;rounded=0;orthogonalLoop=1;jettySize=auto;html=1;exitX=0.625;exitY=1;exitDx=0;exitDy=0;entryX=0.5;entryY=0;entryDx=0;entryDy=0;" edge="1" parent="1" source="jwtGaJk6qlg6mfye-Sgs-56" target="jwtGaJk6qlg6mfye-Sgs-73">
          <mxGeometry relative="1" as="geometry">
            <Array as="points">
              <mxPoint x="2241" y="60" />
              <mxPoint x="2389" y="60" />
            </Array>
          </mxGeometry>
        </mxCell>
        <mxCell id="jwtGaJk6qlg6mfye-Sgs-56" value="&lt;p data-pm-slice=&quot;0 0 []&quot;&gt;load_en &amp;amp;&amp;amp; valid_input&lt;/p&gt;" style="shape=hexagon;perimeter=hexagonPerimeter2;whiteSpace=wrap;html=1;fixedSize=1;fontSize=16;fontFamily=Comic Sans MS;fillColor=#FFFF99;rounded=0;arcSize=10;shadow=0;gradientColor=none;movable=1;resizable=1;rotatable=1;deletable=1;editable=1;locked=0;connectable=1;rotation=0;" vertex="1" parent="1">
          <mxGeometry x="2102" y="7" width="222" height="45" as="geometry" />
        </mxCell>
        <mxCell id="jwtGaJk6qlg6mfye-Sgs-61" value="stripe=1" style="shape=hexagon;perimeter=hexagonPerimeter2;whiteSpace=wrap;html=1;fixedSize=1;fontSize=16;fontFamily=Comic Sans MS;fillColor=#FFFF99;rounded=0;arcSize=10;shadow=0;gradientColor=none;movable=1;resizable=1;rotatable=1;deletable=1;editable=1;locked=0;connectable=1;rotation=0;" vertex="1" parent="1">
          <mxGeometry x="2149" y="282" width="130" height="30" as="geometry" />
        </mxCell>
        <mxCell id="jwtGaJk6qlg6mfye-Sgs-63" value="&lt;p data-pm-slice=&quot;0 0 []&quot;&gt;s_reg_next[addr_2] = {s_reg[addr_2][15:0] , s_reg[addr_2][223:16]}; &lt;/p&gt;&lt;p&gt;            s_reg_next[addr_3] = {s_reg[addr_3][15:0] , s_reg[addr_3][223:16]};&lt;br&gt;&lt;/p&gt;&lt;p&gt;            s_reg_next[addr_4] = {s_reg[addr_4][15:0] , s_reg[addr_4][223:16]};&lt;/p&gt;" style="html=1;rounded=1;absoluteArcSize=1;arcSize=10;shadow=0;fontFamily=Comic Sans MS;fontSize=16;fillColor=#FFFF99;gradientColor=none;movable=1;resizable=1;rotatable=1;deletable=1;editable=1;locked=0;connectable=1;rotation=0;" vertex="1" parent="1">
          <mxGeometry x="1890" y="342" width="540" height="128" as="geometry" />
        </mxCell>
        <mxCell id="jwtGaJk6qlg6mfye-Sgs-65" style="edgeStyle=orthogonalEdgeStyle;rounded=1;orthogonalLoop=1;jettySize=auto;html=1;exitX=0.375;exitY=1;exitDx=0;exitDy=0;entryX=0.5;entryY=0;entryDx=0;entryDy=0;movable=1;resizable=1;rotatable=1;deletable=1;editable=1;locked=0;connectable=1;" edge="1" parent="1" target="jwtGaJk6qlg6mfye-Sgs-63">
          <mxGeometry relative="1" as="geometry">
            <mxPoint x="2132" y="332" as="targetPoint" />
            <Array as="points">
              <mxPoint x="2197" y="323" />
              <mxPoint x="2046" y="323" />
            </Array>
            <mxPoint x="2197" y="312" as="sourcePoint" />
          </mxGeometry>
        </mxCell>
        <mxCell id="jwtGaJk6qlg6mfye-Sgs-67" value="T" style="text;strokeColor=none;fillColor=none;align=left;verticalAlign=top;spacingLeft=4;spacingRight=4;overflow=hidden;rotatable=1;points=[[0,0.5],[1,0.5]];portConstraint=eastwest;shadow=0;fontFamily=Comic Sans MS;fontSize=20;movable=1;resizable=1;deletable=1;editable=1;locked=0;connectable=1;rotation=0;" vertex="1" parent="1">
          <mxGeometry x="2010" y="313" width="30" height="30.04" as="geometry" />
        </mxCell>
        <mxCell id="jwtGaJk6qlg6mfye-Sgs-68" value="F" style="text;strokeColor=none;fillColor=none;align=left;verticalAlign=top;spacingLeft=4;spacingRight=4;overflow=hidden;rotatable=1;points=[[0,0.5],[1,0.5]];portConstraint=eastwest;shadow=0;fontFamily=Comic Sans MS;fontSize=20;movable=1;resizable=1;deletable=1;editable=1;locked=0;connectable=1;rotation=0;" vertex="1" parent="1">
          <mxGeometry x="2383" y="313" width="30" height="30.04" as="geometry" />
        </mxCell>
        <mxCell id="jwtGaJk6qlg6mfye-Sgs-73" value="ALU_en=1" style="shape=hexagon;perimeter=hexagonPerimeter2;whiteSpace=wrap;html=1;fixedSize=1;fontSize=16;fontFamily=Comic Sans MS;fillColor=#FFFF99;rounded=0;arcSize=10;shadow=0;gradientColor=none;movable=1;resizable=1;rotatable=1;deletable=1;editable=1;locked=0;connectable=1;rotation=0;" vertex="1" parent="1">
          <mxGeometry x="2324" y="80" width="130" height="30" as="geometry" />
        </mxCell>
        <mxCell id="jwtGaJk6qlg6mfye-Sgs-75" value="F" style="text;strokeColor=none;fillColor=none;align=left;verticalAlign=top;spacingLeft=4;spacingRight=4;overflow=hidden;rotatable=1;points=[[0,0.5],[1,0.5]];portConstraint=eastwest;shadow=0;fontFamily=Comic Sans MS;fontSize=20;movable=1;resizable=1;deletable=1;editable=1;locked=0;connectable=1;rotation=0;" vertex="1" parent="1">
          <mxGeometry x="2390" y="40" width="30" height="30.04" as="geometry" />
        </mxCell>
        <mxCell id="jwtGaJk6qlg6mfye-Sgs-76" value="&lt;p data-pm-slice=&quot;0 0 []&quot;&gt;s_reg_next[addr_1] = {s_reg[addr_1][7:0] , s_reg[addr_1][223:8]}; &lt;/p&gt;&lt;p&gt;            s_reg_next[addr_2] = {s_reg[addr_2][7:0] , s_reg[addr_2][223:8]};&lt;br/&gt;&lt;/p&gt;&lt;p&gt;            s_reg_next[addr_3] = {s_reg[addr_3][7:0] , s_reg[addr_3][223:8]};&lt;/p&gt;" style="html=1;rounded=1;absoluteArcSize=1;arcSize=10;shadow=0;fontFamily=Comic Sans MS;fontSize=16;fillColor=#FFFF99;gradientColor=none;movable=1;resizable=1;rotatable=1;deletable=1;editable=1;locked=0;connectable=1;rotation=0;" vertex="1" parent="1">
          <mxGeometry x="1890" y="521" width="540" height="128" as="geometry" />
        </mxCell>
      </root>
    </mxGraphModel>
  </diagram>
</mxfile>
